<?xml version="1.0" encoding="utf-8"?>
<!-- Generator: Adobe Illustrator 16.0.0, SVG Export Plug-In . SVG Version: 6.00 Build 0)  -->
<!DOCTYPE svg PUBLIC "-//W3C//DTD SVG 1.1//EN" "http://www.w3.org/Graphics/SVG/1.1/DTD/svg11.dtd">
<svg version="1.1" id="图层_1" xmlns="http://www.w3.org/2000/svg" xmlns:xlink="http://www.w3.org/1999/xlink" x="0px" y="0px"
	 width="200px" height="200px" viewBox="0 0 200 200" enable-background="new 0 0 200 200" xml:space="preserve">
<g>
	<path fill="#593E1E" d="M102.777,11.122L102.777,11.122c-1.232-0.011-2.522,0.345-3.722,1.111L53.9,54.567
		c-0.922,0.644-2.033,0.989-3.155,0.989H11.111C4.978,55.556,0,60.533,0,66.667v66.667c0,6.133,4.978,11.11,11.111,11.11h39.633
		c1.133,0,2.233,0.345,3.155,0.989l45.156,42.344c1.2,0.756,2.489,1.111,3.722,1.111c4.367,0,8.334-4.444,8.334-10.545V21.667
		C111.111,15.556,107.145,11.122,102.777,11.122z M100,173.422l-38.5-36.1c-0.4-0.378-0.833-0.723-1.289-1.045
		c-2.8-1.922-6.066-2.943-9.466-2.943H11.111V66.667h39.633c3.4,0,6.667-1.022,9.466-2.956c0.456-0.311,0.889-0.655,1.289-1.033
		l38.5-36.1V173.422z"/>
	<path fill="#593E1E" d="M155.556,97.089c0-22.767-13.722-42.3-33.333-50.878v12.611c13.222,7.7,22.222,21.878,22.222,38.255
		s-9,30.555-22.222,38.245v12.611C141.834,139.378,155.556,119.855,155.556,97.089z"/>
	<path fill="#593E1E" d="M133.334,11.111v11.478c32.088,9.589,55.555,39.333,55.555,74.5c0,35.155-23.467,64.911-55.555,74.5v11.467
		C171.656,173.166,200,138.479,200,97.089C200,55.678,171.656,20.989,133.334,11.111z"/>
	<path fill="#593E1E" d="M168.1,160.9L161.2,153.6L131.1,121.8l-10-10.6l-46.3-49L67.9,54.9L36.2,21.2C34.3,19.2,31.1,19.1,29.1,21
		c-2,1.9-2.1,5.1-0.199,7.1L60,60.9l6.9,7.3l54.3,57.399l10,10.601l48.7,51.6c1.899,2,5.1,2.101,7.1,0.2s2.1-5.1,0.2-7.1
		L168.1,160.9z"/>
</g>
</svg>
